<svg width="940" height="410" xmlns="http://www.w3.org/2000/svg">
 <clipPath id="g3cb8dc0747_0_0.0">
  <path id="svg_1" clip-rule="nonzero" d="m0,0l960,0l0,540l-960,0l0,-540z"/>
 </clipPath>

 <g>
  <title>background</title>
  <rect fill="none" id="canvas_background" height="412" width="942" y="-1" x="-1"/>
 </g>
 <g>
  <title>Layer 1</title>
  <g id="svg_2" clip-path="url(#g3cb8dc0747_0_0.0)">
   <path id="svg_3" fill-rule="evenodd" d="m0,0l960,0l0,540l-960,0l0,-540z" fill="#ffffff"/>
   <path id="svg_4" fill-rule="evenodd" d="m350.7159,187.99902l-99.63272,81.91818l-0.05232,101.60937l99.63274,-81.91821l0.0523,-101.60934z" fill="#b7b7b7"/>
   <path fill="#7f7f7f" id="svg_5" fill-rule="evenodd" d="m350.7159,187.99902l-99.63272,81.91818l-0.05232,101.60937l99.63274,-81.91821l0.0523,-101.60934z" stroke-linejoin="round" stroke="#595959"/>
   <path id="svg_6" fill-rule="evenodd" d="m250.45924,371.53326l0.37321,-101.87283l-139.99527,-29.90671l-0.37322,101.87283l139.99528,29.90671z" fill="#d9d9d9"/>
   <path fill="#cccccc" id="svg_7" fill-rule="evenodd" d="m250.45924,371.53326l0.37321,-101.87283l-139.99527,-29.90671l-0.37322,101.87283l139.99528,29.90671z" stroke-linejoin="round" stroke="#595959"/>
   <path id="svg_8" fill-rule="evenodd" d="m110.84209,239.13828l99.39552,-81.68105l140.50998,31.19286l-99.39552,81.68103l-140.50998,-31.19284z" fill="#f3f3f3"/>
   <path fill="#e5e5e5" id="svg_9" fill-rule="evenodd" d="m110.84209,239.13828l99.39552,-81.68105l140.50998,31.19286l-99.39552,81.68103l-140.50998,-31.19284z" stroke-linejoin="round" stroke="#595959"/>
   <path id="svg_10" fill-rule="evenodd" d="m109.52814,344.5433l73.98427,-61.00787" fill-opacity="0" fill="#000000"/>
   <path id="svg_11" fill-rule="evenodd" d="m109.52814,344.5433l60.09686,-49.55624" stroke-linejoin="round" stroke-width="3" stroke="#595959"/>
   <path id="svg_12" fill-rule="evenodd" d="m172.77751,298.81012l7.35123,-12.4845l-13.65625,4.83841l6.30502,7.64609z" stroke-width="3" stroke="#595959" fill="#595959"/>
   <path id="svg_13" fill-rule="evenodd" d="m110.50131,343.5433l91.49606,17.98425" fill-opacity="0" fill="#000000"/>
   <path id="svg_14" fill-rule="evenodd" d="m110.50131,343.5433l73.83402,14.51263" stroke-linejoin="round" stroke-width="3" stroke="#595959"/>
   <path id="svg_15" fill-rule="evenodd" d="m183.37964,362.91812l14.31438,-2.23642l-12.40299,-7.48791l-1.91139,9.72433z" stroke-width="3" stroke="#595959" fill="#595959"/>
   <path id="svg_16" fill-rule="evenodd" d="m110.02618,343.5701l0,-86.01575" fill-opacity="0" fill="#000000"/>
   <path id="svg_17" fill-rule="evenodd" d="m110.02618,343.5701l0,-68.01575" stroke-linejoin="round" stroke-width="3" stroke="#595959"/>
   <path id="svg_18" fill-rule="evenodd" d="m114.98138,275.55435l-4.9552,-13.61429l-4.95519,13.61429l9.91039,0z" stroke-width="3" stroke="#595959" fill="#595959"/>
   <path id="svg_19" fill-rule="evenodd" d="m189.46751,344.5433l53.82678,0l0,66.70868l-53.82678,0l0,-66.70868z" fill-opacity="0" fill="#000000"/>
   <path id="svg_20" fill-rule="nonzero" d="m207.40501,372.61456l3.28125,0.5625q-0.64062,1.79687 -2.01562,2.75q-1.35938,0.9375 -3.40625,0.9375q-3.25,0 -4.79688,-2.125q-1.23437,-1.70313 -1.23437,-4.28125q0,-3.09375 1.60937,-4.84375q1.625,-1.76563 4.09375,-1.76563q2.78125,0 4.375,1.84375q1.60938,1.82813 1.54688,5.60938l-8.25,0q0.03125,1.46875 0.79687,2.28125q0.76563,0.8125 1.89063,0.8125q0.78125,0 1.29687,-0.42188q0.53125,-0.42187 0.8125,-1.35937zm0.1875,-3.32813q-0.04687,-1.42187 -0.75,-2.15625q-0.70312,-0.75 -1.70312,-0.75q-1.07813,0 -1.78125,0.78125q-0.70313,0.78125 -0.6875,2.125l4.92187,0z" fill="#000000"/>
   <path id="svg_21" fill-rule="nonzero" d="m218.11205,385.5833l-2.1875,0l0,-8.28125q-1.20312,1.125 -2.84375,1.67188l0,-2q0.85938,-0.28125 1.85938,-1.0625q1.01562,-0.78125 1.39062,-1.82813l1.78125,0l0,11.5z" fill="#000000"/>
   <path id="svg_22" fill-rule="evenodd" d="m178.33421,260.3832l92.91338,0l0,66.70865l-92.91338,0l0,-66.70865z" fill-opacity="0" fill="#000000"/>
   <path id="svg_23" fill-rule="nonzero" d="m196.27171,288.45447l3.28125,0.5625q-0.64062,1.79688 -2.01562,2.75q-1.35938,0.9375 -3.40625,0.9375q-3.25,0 -4.79688,-2.125q-1.23437,-1.70312 -1.23437,-4.28125q0,-3.09375 1.60937,-4.84375q1.625,-1.76562 4.09375,-1.76562q2.78125,0 4.375,1.84375q1.60938,1.82812 1.54688,5.60937l-8.25,0q0.03125,1.46875 0.79687,2.28125q0.76563,0.8125 1.89063,0.8125q0.78125,0 1.29687,-0.42187q0.53125,-0.42188 0.8125,-1.35938zm0.1875,-3.32812q-0.04687,-1.42188 -0.75,-2.15625q-0.70312,-0.75 -1.70312,-0.75q-1.07813,0 -1.78125,0.78125q-0.70313,0.78125 -0.6875,2.125l4.92187,0z" fill="#000000"/>
   <path id="svg_24" fill-rule="nonzero" d="m208.77562,299.37634l0,2.04688l-7.6875,0q0.125,-1.15625 0.75,-2.1875q0.625,-1.04688 2.46875,-2.75q1.48438,-1.39063 1.8125,-1.875q0.45313,-0.6875 0.45313,-1.34375q0,-0.73438 -0.39063,-1.125q-0.39062,-0.40625 -1.09375,-0.40625q-0.6875,0 -1.09375,0.42187q-0.40625,0.40625 -0.46875,1.375l-2.1875,-0.21875q0.20313,-1.8125 1.23438,-2.59375q1.03125,-0.79687 2.57812,-0.79687q1.6875,0 2.65625,0.92187q0.96875,0.90625 0.96875,2.26563q0,0.76562 -0.28125,1.46875q-0.26562,0.70312 -0.875,1.46875q-0.39062,0.5 -1.4375,1.45312q-1.03125,0.95313 -1.3125,1.26563q-0.28125,0.3125 -0.45312,0.60937l4.35937,0z" fill="#000000"/>
   <path id="svg_25" fill-rule="evenodd" d="m78.72092,215.53853l57.6063,0l0,66.70866l-57.6063,0l0,-66.70866z" fill-opacity="0" fill="#000000"/>
   <path id="svg_26" fill-rule="nonzero" d="m96.65842,243.60979l3.28125,0.5625q-0.64062,1.79688 -2.01562,2.75q-1.35938,0.9375 -3.40625,0.9375q-3.25,0 -4.79688,-2.125q-1.23437,-1.70312 -1.23437,-4.28125q0,-3.09375 1.60937,-4.84375q1.625,-1.76562 4.09375,-1.76562q2.78125,0 4.375,1.84375q1.60938,1.82812 1.54688,5.60937l-8.25,0q0.03125,1.46875 0.79687,2.28125q0.76563,0.8125 1.89063,0.8125q0.78125,0 1.29687,-0.42187q0.53125,-0.42188 0.8125,-1.35938zm0.1875,-3.32812q-0.04687,-1.42188 -0.75,-2.15625q-0.70312,-0.75 -1.70312,-0.75q-1.07813,0 -1.78125,0.78125q-0.70313,0.78125 -0.6875,2.125l4.92187,0z" fill="#000000"/>
   <path id="svg_27" fill-rule="nonzero" d="m101.67796,253.53166l2.125,-0.25q0.09375,0.8125 0.53125,1.25q0.45312,0.42187 1.09375,0.42187q0.67187,0 1.14062,-0.51562q0.46875,-0.51563 0.46875,-1.39063q0,-0.82812 -0.45312,-1.3125q-0.4375,-0.48437 -1.07813,-0.48437q-0.42187,0 -1.01562,0.15625l0.25,-1.78125q0.89062,0.01562 1.35937,-0.39063q0.46875,-0.40625 0.46875,-1.09375q0,-0.57812 -0.34375,-0.92187q-0.34375,-0.34375 -0.92187,-0.34375q-0.5625,0 -0.96875,0.39062q-0.39063,0.39063 -0.46875,1.14063l-2.03125,-0.34375q0.21875,-1.03125 0.64062,-1.65625q0.42188,-0.625 1.1875,-0.96875q0.76563,-0.35938 1.70313,-0.35938q1.625,0 2.59375,1.03125q0.8125,0.84375 0.8125,1.90625q0,1.5 -1.65625,2.40625q0.98437,0.20313 1.57812,0.9375q0.59375,0.73438 0.59375,1.78125q0,1.5 -1.10937,2.57813q-1.09375,1.06248 -2.73438,1.06248q-1.5625,0 -2.59375,-0.89061q-1.01562,-0.90625 -1.17187,-2.35937z" fill="#000000"/>
   <path id="svg_28" fill-rule="evenodd" d="m816.3718,156.90283l-107.00922,157.51328l7.79663,23.90405l107.00922,-157.51328l-7.79663,-23.90405z" fill="#b7b7b7"/>
   <path fill="#7f7f7f" id="svg_29" fill-rule="evenodd" d="m816.3718,156.90283l-107.00922,157.51328l7.79663,23.90405l107.00922,-157.51328l-7.79663,-23.90405z" stroke-linejoin="round" stroke="#595959"/>
   <path id="svg_30" fill-rule="evenodd" d="m716.1494,338.37878l-5.44055,-16.8782l-215.59882,22.76797l5.44055,16.8782l215.59882,-22.76797z" fill="#d9d9d9"/>
   <path fill="#cccccc" id="svg_31" fill-rule="evenodd" d="m716.1494,338.37878l-5.44055,-16.8782l-215.59882,22.76797l5.44055,16.8782l215.59882,-22.76797z" stroke-linejoin="round" stroke="#595959"/>
   <path id="svg_32" fill-rule="evenodd" d="m494.80273,343.34705l104.76386,-164.37122l217.03143,-21.14061l-104.76386,164.3712l-217.03143,21.14063z" fill="#f3f3f3"/>
   <path fill="#e5e5e5" id="svg_33" fill-rule="evenodd" d="m494.80273,343.34705l104.76386,-164.37122l217.03143,-21.14061l-104.76386,164.3712l-217.03143,21.14063z" stroke-linejoin="round" stroke="#595959"/>
   <path id="svg_34" fill-rule="evenodd" d="m651.9103,258.76978l52.06299,-84.40945" fill-opacity="0" fill="#000000"/>
   <path id="svg_35" fill-rule="evenodd" d="m651.9103,258.76978l42.61359,-69.08923" stroke-linejoin="round" stroke-width="3" stroke="#595959"/>
   <path id="svg_36" fill-rule="evenodd" d="m698.7414,192.28185l2.9295,-14.18875l-11.3645,8.98614l8.435,5.20261z" stroke-width="3" stroke="#595959" fill="#595959"/>
   <path id="svg_37" fill-rule="evenodd" d="m651.5906,259.39923l88.8819,-8.53543" fill-opacity="0" fill="#000000"/>
   <path id="svg_38" fill-rule="evenodd" d="m651.5906,259.39923l70.96435,-6.81479" stroke-linejoin="round" stroke-width="3" stroke="#595959"/>
   <path id="svg_39" fill-rule="evenodd" d="m723.0286,257.51697l13.07825,-6.23393l-14.02558,-3.63109l0.94733,9.86502z" stroke-width="3" stroke="#595959" fill="#595959"/>
   <path id="svg_40" fill-rule="evenodd" d="m651.9094,260.8189l-33.95276,-97.70081" fill-opacity="0" fill="#000000"/>
   <path id="svg_41" fill-rule="evenodd" d="m651.9094,260.8189l-30.57782,-87.98924" stroke-linejoin="round" stroke-width="3" stroke="#595959"/>
   <path id="svg_42" fill-rule="evenodd" d="m621.3316,172.82965l4.29431,2.07933l-6.22955,-7.64819l-0.14404,9.86314l2.07928,-4.29428z" stroke-width="3" stroke="#595959" fill="#595959"/>
   <path id="svg_43" fill-rule="evenodd" d="m732.47565,221.7769l116.97638,0l0,66.70866l-116.97638,0l0,-66.70866z" fill-opacity="0" fill="#000000"/>
   <path id="svg_44" fill-rule="nonzero" d="m743.0538,253.81691l0,-17.1875l3.29688,0l0,6.1875q1.53125,-1.73437 3.60937,-1.73437q2.28125,0 3.76563,1.65625q1.48437,1.64062 1.48437,4.71875q0,3.1875 -1.51562,4.92187q-1.51563,1.71875 -3.6875,1.71875q-1.0625,0 -2.10938,-0.53125q-1.03125,-0.53125 -1.78125,-1.57812l0,1.82812l-3.0625,0zm3.28125,-6.5q0,1.9375 0.60938,2.85938q0.84375,1.3125 2.26562,1.3125q1.09375,0 1.85938,-0.92188q0.76562,-0.9375 0.76562,-2.9375q0,-2.14062 -0.78125,-3.07812q-0.76562,-0.9375 -1.96875,-0.9375q-1.1875,0 -1.96875,0.92187q-0.78125,0.90625 -0.78125,2.78125z" fill="#000000"/>
   <path id="svg_45" fill-rule="nonzero" d="m762.4327,262.8169l-2.1875,0l0,-8.28124q-1.20313,1.125 -2.84375,1.67186l0,-1.99998q0.85937,-0.28125 1.85937,-1.0625q1.01563,-0.78125 1.39063,-1.82813l1.78125,0l0,11.49999z" fill="#000000"/>
   <path id="svg_46" fill-rule="evenodd" d="m694.1791,139.4147l116.97638,0l0,66.70865l-116.97638,0l0,-66.70865z" fill-opacity="0" fill="#000000"/>
   <path id="svg_47" fill-rule="nonzero" d="m704.7572,171.4547l0,-17.1875l3.29688,0l0,6.1875q1.53125,-1.73437 3.60937,-1.73437q2.28125,0 3.76563,1.65625q1.48437,1.64062 1.48437,4.71875q0,3.1875 -1.51562,4.92187q-1.51563,1.71875 -3.6875,1.71875q-1.0625,0 -2.10938,-0.53125q-1.03125,-0.53125 -1.78125,-1.57812l0,1.82812l-3.0625,0zm3.28125,-6.5q0,1.9375 0.60938,2.85938q0.84375,1.3125 2.26562,1.3125q1.09375,0 1.85938,-0.92188q0.76562,-0.9375 0.76562,-2.9375q0,-2.14062 -0.78125,-3.07812q-0.76562,-0.9375 -1.96875,-0.9375q-1.1875,0 -1.96875,0.92187q-0.78125,0.90625 -0.78125,2.78125z" fill="#000000"/>
   <path id="svg_48" fill-rule="nonzero" d="m725.933,178.40782l0,2.04687l-7.6875,0q0.125,-1.15625 0.75,-2.1875q0.625,-1.04687 2.46875,-2.75q1.48437,-1.39062 1.8125,-1.875q0.45312,-0.6875 0.45312,-1.34375q0,-0.73437 -0.39062,-1.125q-0.39063,-0.40625 -1.09375,-0.40625q-0.6875,0 -1.09375,0.42188q-0.40625,0.40625 -0.46875,1.375l-2.1875,-0.21875q0.20312,-1.8125 1.23437,-2.59375q1.03125,-0.79688 2.57813,-0.79688q1.6875,0 2.65625,0.92188q0.96875,0.90625 0.96875,2.26562q0,0.76563 -0.28125,1.46875q-0.26563,0.70313 -0.875,1.46875q-0.39063,0.5 -1.4375,1.45313q-1.03125,0.95312 -1.3125,1.26562q-0.28125,0.3125 -0.45313,0.60938l4.35938,0z" fill="#000000"/>
   <path id="svg_49" fill-rule="evenodd" d="m597.2132,122.43569l116.97638,0l0,66.70867l-116.97638,0l0,-66.70867z" fill-opacity="0" fill="#000000"/>
   <path id="svg_50" fill-rule="nonzero" d="m607.7913,154.4757l0,-17.1875l3.29687,0l0,6.1875q1.53125,-1.73438 3.60938,-1.73438q2.28125,0 3.76562,1.65625q1.48438,1.64063 1.48438,4.71875q0,3.1875 -1.51563,4.92188q-1.51562,1.71875 -3.6875,1.71875q-1.0625,0 -2.10937,-0.53125q-1.03125,-0.53125 -1.78125,-1.57813l0,1.82813l-3.0625,0zm3.28125,-6.5q0,1.9375 0.60937,2.85937q0.84375,1.3125 2.26563,1.3125q1.09375,0 1.85937,-0.92187q0.76563,-0.9375 0.76563,-2.9375q0,-2.14063 -0.78125,-3.07813q-0.76563,-0.9375 -1.96875,-0.9375q-1.1875,0 -1.96875,0.92188q-0.78125,0.90625 -0.78125,2.78125z" fill="#000000"/>
   <path id="svg_51" fill-rule="nonzero" d="m621.4827,160.42882l2.125,-0.25q0.09375,0.8125 0.53125,1.25q0.45313,0.42188 1.09375,0.42188q0.67188,0 1.14063,-0.51563q0.46875,-0.51562 0.46875,-1.39062q0,-0.82813 -0.45313,-1.3125q-0.4375,-0.48438 -1.07812,-0.48438q-0.42188,0 -1.01563,0.15625l0.25,-1.78125q0.89063,0.01563 1.35938,-0.39062q0.46875,-0.40625 0.46875,-1.09375q0,-0.57813 -0.34375,-0.92188q-0.34375,-0.34375 -0.92188,-0.34375q-0.5625,0 -0.96875,0.39063q-0.39062,0.39062 -0.46875,1.14062l-2.03125,-0.34375q0.21875,-1.03125 0.64063,-1.65625q0.42187,-0.625 1.1875,-0.96875q0.76562,-0.35937 1.70312,-0.35937q1.625,0 2.59375,1.03125q0.8125,0.84375 0.8125,1.90625q0,1.5 -1.65625,2.40625q0.98438,0.20312 1.57813,0.9375q0.59375,0.73437 0.59375,1.78125q0,1.5 -1.10938,2.57812q-1.09375,1.0625 -2.73437,1.0625q-1.5625,0 -2.59375,-0.89062q-1.01563,-0.90625 -1.17188,-2.35938z" fill="#000000"/>
   <path id="svg_52" fill-rule="evenodd" d="m144.4672,12.7769l227.02362,0l0,55.2441l-227.02362,0l0,-55.2441z" fill-opacity="0" fill="#000000"/>
   <path id="svg_53" fill-rule="nonzero" d="m155.70157,33.8169l0,-17.1875l2.28125,0l0,17.1875l-2.28125,0zm6.01172,0l0,-12.45312l1.90625,0l0,1.78125q1.375,-2.0625 3.95312,-2.0625q1.125,0 2.0625,0.40625q0.95313,0.40625 1.42188,1.0625q0.46875,0.65625 0.65625,1.5625q0.125,0.57812 0.125,2.04687l0,7.65625l-2.10938,0l0,-7.57812q0,-1.28125 -0.25,-1.92188q-0.25,-0.64062 -0.875,-1.01562q-0.625,-0.39063 -1.46875,-0.39063q-1.34375,0 -2.32812,0.85938q-0.98438,0.85937 -0.98438,3.25l0,6.79687l-2.10937,0zm21.8789,-4.01562l2.17188,0.28125q-0.51563,1.90625 -1.90625,2.96875q-1.39063,1.04687 -3.5625,1.04687q-2.73438,0 -4.34375,-1.67187q-1.59375,-1.6875 -1.59375,-4.73438q0,-3.14062 1.60937,-4.875q1.625,-1.73437 4.20313,-1.73437q2.5,0 4.07812,1.70312q1.59375,1.70313 1.59375,4.78125q0,0.1875 -0.01562,0.5625l-9.28125,0q0.10937,2.04688 1.15625,3.14063q1.04687,1.09375 2.60937,1.09375q1.15625,0 1.96875,-0.60938q0.82813,-0.60937 1.3125,-1.95312zm-6.9375,-3.40625l6.95313,0q-0.14063,-1.5625 -0.79688,-2.35938q-1,-1.21875 -2.60937,-1.21875q-1.45313,0 -2.45313,0.98438q-0.98437,0.96875 -1.09375,2.59375zm11.73829,7.42187l0,-12.45312l1.89062,0l0,1.89062q0.73438,-1.32812 1.34375,-1.75q0.625,-0.42187 1.35938,-0.42187q1.0625,0 2.17187,0.6875l-0.73437,1.95312q-0.76563,-0.45312 -1.54688,-0.45312q-0.6875,0 -1.25,0.42187q-0.54687,0.40625 -0.78125,1.14063q-0.34375,1.125 -0.34375,2.46875l0,6.51562l-2.10937,0zm12.61718,-1.89062l0.3125,1.85937q-0.89062,0.20313 -1.59375,0.20313q-1.15625,0 -1.79687,-0.35938q-0.625,-0.375 -0.89063,-0.96875q-0.25,-0.59375 -0.25,-2.48437l0,-7.17188l-1.54687,0l0,-1.64062l1.54687,0l0,-3.07813l2.09375,-1.26562l0,4.34375l2.125,0l0,1.64062l-2.125,0l0,7.28125q0,0.90625 0.10938,1.17188q0.125,0.25 0.375,0.40625q0.25,0.14062 0.71875,0.14062q0.34375,0 0.92187,-0.07812zm2.07422,-12.85938l0,-2.4375l2.10938,0l0,2.4375l-2.10938,0zm0,14.75l0,-12.45312l2.10938,0l0,12.45312l-2.10938,0zm13.44141,-1.53125q-1.17188,0.98438 -2.26563,1.40625q-1.07812,0.40625 -2.3125,0.40625q-2.04687,0 -3.15625,-1q-1.09375,-1 -1.09375,-2.5625q0,-0.92187 0.40625,-1.67187q0.42188,-0.75 1.09375,-1.20313q0.67188,-0.46875 1.51563,-0.70312q0.625,-0.15625 1.875,-0.3125q2.5625,-0.3125 3.76562,-0.73438q0.01563,-0.42187 0.01563,-0.54687q0,-1.28125 -0.60938,-1.8125q-0.79687,-0.71875 -2.39062,-0.71875q-1.5,0 -2.20313,0.53125q-0.70312,0.51562 -1.04687,1.84375l-2.0625,-0.28125q0.28125,-1.32813 0.92187,-2.14063q0.64063,-0.8125 1.85938,-1.25q1.21875,-0.45312 2.82812,-0.45312q1.59375,0 2.59375,0.375q1,0.375 1.46875,0.95312q0.46875,0.5625 0.65625,1.4375q0.09375,0.53125 0.09375,1.9375l0,2.8125q0,2.9375 0.14063,3.71875q0.14062,0.78125 0.53125,1.5l-2.20313,0q-0.32812,-0.65625 -0.42187,-1.53125zm-0.17188,-4.71875q-1.15625,0.46875 -3.45312,0.79688q-1.29688,0.1875 -1.84375,0.42187q-0.53125,0.23438 -0.82813,0.6875q-0.28125,0.45313 -0.28125,1q0,0.84375 0.625,1.40625q0.64063,0.5625 1.875,0.5625q1.21875,0 2.17188,-0.53125q0.95312,-0.53125 1.39062,-1.45312q0.34375,-0.71875 0.34375,-2.10938l0,-0.78125zm5.34766,6.25l0,-17.1875l2.10937,0l0,17.1875l-2.10937,0zm12.5625,0l0,-10.8125l-1.875,0l0,-1.64062l1.875,0l0,-1.3125q0,-1.26563 0.21875,-1.875q0.29687,-0.8125 1.0625,-1.3125q0.78125,-0.51563 2.15625,-0.51563q0.89062,0 1.96875,0.20313l-0.3125,1.84375q-0.65625,-0.125 -1.25,-0.125q-0.95313,0 -1.35938,0.42187q-0.39062,0.40625 -0.39062,1.53125l0,1.14063l2.42187,0l0,1.64062l-2.42187,0l0,10.8125l-2.09375,0zm6.13672,0l0,-12.45312l1.89062,0l0,1.89062q0.73438,-1.32812 1.34375,-1.75q0.625,-0.42187 1.35938,-0.42187q1.0625,0 2.17187,0.6875l-0.73437,1.95312q-0.76563,-0.45312 -1.54688,-0.45312q-0.6875,0 -1.25,0.42187q-0.54687,0.40625 -0.78125,1.14063q-0.34375,1.125 -0.34375,2.46875l0,6.51562l-2.10937,0zm16.13281,-1.53125q-1.17187,0.98438 -2.26562,1.40625q-1.07813,0.40625 -2.3125,0.40625q-2.04688,0 -3.15625,-1q-1.09375,-1 -1.09375,-2.5625q0,-0.92187 0.40625,-1.67187q0.42187,-0.75 1.09375,-1.20313q0.67187,-0.46875 1.51562,-0.70312q0.625,-0.15625 1.875,-0.3125q2.5625,-0.3125 3.76563,-0.73438q0.01562,-0.42187 0.01562,-0.54687q0,-1.28125 -0.60937,-1.8125q-0.79688,-0.71875 -2.39063,-0.71875q-1.5,0 -2.20312,0.53125q-0.70313,0.51562 -1.04688,1.84375l-2.0625,-0.28125q0.28125,-1.32813 0.92188,-2.14063q0.64062,-0.8125 1.85937,-1.25q1.21875,-0.45312 2.82813,-0.45312q1.59375,0 2.59375,0.375q1,0.375 1.46875,0.95312q0.46875,0.5625 0.65625,1.4375q0.09375,0.53125 0.09375,1.9375l0,2.8125q0,2.9375 0.14062,3.71875q0.14063,0.78125 0.53125,1.5l-2.20312,0q-0.32813,-0.65625 -0.42188,-1.53125zm-0.17187,-4.71875q-1.15625,0.46875 -3.45313,0.79688q-1.29687,0.1875 -1.84375,0.42187q-0.53125,0.23438 -0.82812,0.6875q-0.28125,0.45313 -0.28125,1q0,0.84375 0.625,1.40625q0.64062,0.5625 1.875,0.5625q1.21875,0 2.17187,-0.53125q0.95313,-0.53125 1.39063,-1.45312q0.34375,-0.71875 0.34375,-2.10938l0,-0.78125zm5.39453,6.25l0,-12.45312l1.89062,0l0,1.75q0.59375,-0.90625 1.5625,-1.46875q0.96875,-0.5625 2.21875,-0.5625q1.375,0 2.25,0.57812q0.89063,0.57813 1.26563,1.60938q1.46875,-2.1875 3.84375,-2.1875q1.84375,0 2.84375,1.03125q1,1.03125 1,3.15625l0,8.54687l-2.10938,0l0,-7.84375q0,-1.26562 -0.20312,-1.8125q-0.20313,-0.5625 -0.75,-0.90625q-0.53125,-0.34375 -1.25,-0.34375q-1.3125,0 -2.1875,0.875q-0.85938,0.875 -0.85938,2.79688l0,7.23437l-2.10937,0l0,-8.09375q0,-1.40625 -0.51563,-2.10937q-0.51562,-0.70313 -1.6875,-0.70313q-0.89062,0 -1.65625,0.46875q-0.75,0.46875 -1.09375,1.375q-0.34375,0.90625 -0.34375,2.60938l0,6.45312l-2.10937,0zm28.52343,-4.01562l2.17188,0.28125q-0.51563,1.90625 -1.90625,2.96875q-1.39063,1.04687 -3.5625,1.04687q-2.73438,0 -4.34375,-1.67187q-1.59375,-1.6875 -1.59375,-4.73438q0,-3.14062 1.60937,-4.875q1.625,-1.73437 4.20313,-1.73437q2.5,0 4.07812,1.70312q1.59375,1.70313 1.59375,4.78125q0,0.1875 -0.01562,0.5625l-9.28125,0q0.10937,2.04688 1.15625,3.14063q1.04687,1.09375 2.60937,1.09375q1.15625,0 1.96875,-0.60938q0.82813,-0.60937 1.3125,-1.95312zm-6.9375,-3.40625l6.95313,0q-0.14063,-1.5625 -0.79688,-2.35938q-1,-1.21875 -2.60937,-1.21875q-1.45313,0 -2.45313,0.98438q-0.98437,0.96875 -1.09375,2.59375z" fill="#000000"/>
   <path id="svg_54" fill-rule="evenodd" d="m583.16797,12.7769l227.02362,0l0,55.2441l-227.02362,0l0,-55.2441z" fill-opacity="0" fill="#000000"/>
   <path id="svg_55" fill-rule="nonzero" d="m593.9336,33.8169l0,-17.1875l6.4375,0q1.96875,0 3.15625,0.53125q1.1875,0.51563 1.85937,1.60938q0.6875,1.07812 0.6875,2.26562q0,1.09375 -0.60937,2.07813q-0.59375,0.96875 -1.79688,1.5625q1.5625,0.45312 2.39063,1.5625q0.84375,1.09375 0.84375,2.59375q0,1.20312 -0.51563,2.25q-0.5,1.03125 -1.25,1.59375q-0.75,0.5625 -1.89062,0.85937q-1.125,0.28125 -2.76563,0.28125l-6.54687,0zm2.26562,-9.96875l3.71875,0q1.51563,0 2.17188,-0.1875q0.85937,-0.26562 1.29687,-0.85937q0.4375,-0.59375 0.4375,-1.5q0,-0.85938 -0.40625,-1.5q-0.40625,-0.65625 -1.17187,-0.89063q-0.76563,-0.25 -2.60938,-0.25l-3.4375,0l0,5.1875zm0,7.9375l4.28125,0q1.09375,0 1.54688,-0.07812q0.78125,-0.14063 1.3125,-0.46875q0.53125,-0.32813 0.85937,-0.95313q0.34375,-0.625 0.34375,-1.45312q0,-0.95313 -0.5,-1.65625q-0.48437,-0.71875 -1.35937,-1q-0.875,-0.29688 -2.51563,-0.29688l-3.96875,0l0,5.90625zm12.77344,-4.1875q0,-3.46875 1.92188,-5.125q1.60937,-1.39062 3.92187,-1.39062q2.5625,0 4.1875,1.6875q1.625,1.6875 1.625,4.64062q0,2.40625 -0.71875,3.78125q-0.71875,1.375 -2.09375,2.14063q-1.375,0.76562 -3,0.76562q-2.625,0 -4.23437,-1.67187q-1.60938,-1.6875 -1.60938,-4.82813zm2.17188,0q0,2.39063 1.03125,3.57813q1.04687,1.1875 2.64062,1.1875q1.5625,0 2.60938,-1.1875q1.04687,-1.20313 1.04687,-3.65625q0,-2.3125 -1.0625,-3.5q-1.04687,-1.1875 -2.59375,-1.1875q-1.59375,0 -2.64062,1.1875q-1.03125,1.1875 -1.03125,3.57812zm20.03515,6.21875l0,-1.57812q-1.1875,1.85937 -3.48437,1.85937q-1.48438,0 -2.73438,-0.8125q-1.25,-0.82812 -1.9375,-2.29687q-0.67187,-1.46875 -0.67187,-3.39063q0,-1.85937 0.60937,-3.375q0.625,-1.51562 1.85938,-2.32812q1.25,-0.8125 2.78125,-0.8125q1.125,0 2,0.48437q0.89062,0.46875 1.4375,1.23438l0,-6.17188l2.09375,0l0,17.1875l-1.95313,0zm-6.67187,-6.21875q0,2.39063 1,3.57813q1.01562,1.1875 2.39062,1.1875q1.39063,0 2.34375,-1.125q0.96875,-1.14063 0.96875,-3.45313q0,-2.5625 -0.98437,-3.75q-0.98438,-1.20312 -2.42188,-1.20312q-1.40625,0 -2.35937,1.15625q-0.9375,1.14062 -0.9375,3.60937zm11.84765,11.01563l-0.23437,-1.98438q0.70312,0.1875 1.21875,0.1875q0.70312,0 1.125,-0.23437q0.42187,-0.23438 0.6875,-0.65625q0.20312,-0.3125 0.64062,-1.5625q0.0625,-0.1875 0.1875,-0.51563l-4.71875,-12.48437l2.26563,0l2.59375,7.21875q0.5,1.35937 0.90625,2.875q0.35937,-1.45313 0.85937,-2.82813l2.67188,-7.26562l2.10937,0l-4.73437,12.67187q-0.76563,2.04688 -1.1875,2.8125q-0.5625,1.04688 -1.29688,1.53125q-0.71875,0.48438 -1.73437,0.48438q-0.60938,0 -1.35938,-0.25zm11.28125,-9.95313l0,-2.125l6.48438,0l0,2.125l-6.48438,0zm9.32032,5.15625l0,-10.8125l-1.875,0l0,-1.64062l1.875,0l0,-1.3125q0,-1.26563 0.21875,-1.875q0.29687,-0.8125 1.0625,-1.3125q0.78125,-0.51563 2.15625,-0.51563q0.89062,0 1.96875,0.20313l-0.3125,1.84375q-0.65625,-0.125 -1.25,-0.125q-0.95313,0 -1.35938,0.42187q-0.39062,0.40625 -0.39062,1.53125l0,1.14063l2.42187,0l0,1.64062l-2.42187,0l0,10.8125l-2.09375,0zm6.16797,-14.75l0,-2.4375l2.10937,0l0,2.4375l-2.10937,0zm0,14.75l0,-12.45312l2.10937,0l0,12.45312l-2.10937,0zm3.91015,0l4.54688,-6.46875l-4.20313,-5.98437l2.64063,0l1.90625,2.92187q0.54687,0.82813 0.875,1.39063q0.51562,-0.76563 0.9375,-1.35938l2.10937,-2.95312l2.51563,0l-4.29688,5.85937l4.625,6.59375l-2.59375,0l-2.54687,-3.875l-0.6875,-1.03125l-3.26563,4.90625l-2.5625,0zm21.9375,-4.01562l2.17188,0.28125q-0.51563,1.90625 -1.90625,2.96875q-1.39063,1.04687 -3.5625,1.04687q-2.73438,0 -4.34375,-1.67187q-1.59375,-1.6875 -1.59375,-4.73438q0,-3.14062 1.60937,-4.875q1.625,-1.73437 4.20313,-1.73437q2.5,0 4.07812,1.70312q1.59375,1.70313 1.59375,4.78125q0,0.1875 -0.01562,0.5625l-9.28125,0q0.10937,2.04688 1.15625,3.14063q1.04687,1.09375 2.60937,1.09375q1.15625,0 1.96875,-0.60938q0.82813,-0.60937 1.3125,-1.95312zm-6.9375,-3.40625l6.95313,0q-0.14063,-1.5625 -0.79688,-2.35938q-1,-1.21875 -2.60937,-1.21875q-1.45313,0 -2.45313,0.98438q-0.98437,0.96875 -1.09375,2.59375zm19.83203,7.42187l0,-1.57812q-1.1875,1.85937 -3.48437,1.85937q-1.48438,0 -2.73438,-0.8125q-1.25,-0.82812 -1.9375,-2.29687q-0.67187,-1.46875 -0.67187,-3.39063q0,-1.85937 0.60937,-3.375q0.625,-1.51562 1.85938,-2.32812q1.25,-0.8125 2.78125,-0.8125q1.125,0 2,0.48437q0.89062,0.46875 1.4375,1.23438l0,-6.17188l2.09375,0l0,17.1875l-1.95313,0zm-6.67187,-6.21875q0,2.39063 1,3.57813q1.01562,1.1875 2.39062,1.1875q1.39063,0 2.34375,-1.125q0.96875,-1.14063 0.96875,-3.45313q0,-2.5625 -0.98437,-3.75q-0.98438,-1.20312 -2.42188,-1.20312q-1.40625,0 -2.35937,1.15625q-0.9375,1.14062 -0.9375,3.60937zm19.125,6.21875l0,-10.8125l-1.875,0l0,-1.64062l1.875,0l0,-1.3125q0,-1.26563 0.21875,-1.875q0.29687,-0.8125 1.0625,-1.3125q0.78125,-0.51563 2.15625,-0.51563q0.89062,0 1.96875,0.20313l-0.3125,1.84375q-0.65625,-0.125 -1.25,-0.125q-0.95313,0 -1.35938,0.42187q-0.39062,0.40625 -0.39062,1.53125l0,1.14063l2.42187,0l0,1.64062l-2.42187,0l0,10.8125l-2.09375,0zm6.13672,0l0,-12.45312l1.89062,0l0,1.89062q0.73438,-1.32812 1.34375,-1.75q0.625,-0.42187 1.35938,-0.42187q1.0625,0 2.17187,0.6875l-0.73437,1.95312q-0.76563,-0.45312 -1.54688,-0.45312q-0.6875,0 -1.25,0.42187q-0.54687,0.40625 -0.78125,1.14063q-0.34375,1.125 -0.34375,2.46875l0,6.51562l-2.10937,0zm16.13281,-1.53125q-1.17188,0.98438 -2.26563,1.40625q-1.07812,0.40625 -2.3125,0.40625q-2.04687,0 -3.15625,-1q-1.09375,-1 -1.09375,-2.5625q0,-0.92187 0.40625,-1.67187q0.42188,-0.75 1.09375,-1.20313q0.67188,-0.46875 1.51563,-0.70312q0.625,-0.15625 1.875,-0.3125q2.5625,-0.3125 3.76562,-0.73438q0.01563,-0.42187 0.01563,-0.54687q0,-1.28125 -0.60938,-1.8125q-0.79687,-0.71875 -2.39062,-0.71875q-1.5,0 -2.20313,0.53125q-0.70312,0.51562 -1.04687,1.84375l-2.0625,-0.28125q0.28125,-1.32813 0.92187,-2.14063q0.64063,-0.8125 1.85938,-1.25q1.21875,-0.45312 2.82812,-0.45312q1.59375,0 2.59375,0.375q1,0.375 1.46875,0.95312q0.46875,0.5625 0.65625,1.4375q0.09375,0.53125 0.09375,1.9375l0,2.8125q0,2.9375 0.14063,3.71875q0.14062,0.78125 0.53125,1.5l-2.20313,0q-0.32812,-0.65625 -0.42187,-1.53125zm-0.17188,-4.71875q-1.15625,0.46875 -3.45312,0.79688q-1.29688,0.1875 -1.84375,0.42187q-0.53125,0.23438 -0.82813,0.6875q-0.28125,0.45313 -0.28125,1q0,0.84375 0.625,1.40625q0.64063,0.5625 1.875,0.5625q1.21875,0 2.17188,-0.53125q0.95312,-0.53125 1.39062,-1.45312q0.34375,-0.71875 0.34375,-2.10938l0,-0.78125zm5.39453,6.25l0,-12.45312l1.89063,0l0,1.75q0.59375,-0.90625 1.5625,-1.46875q0.96875,-0.5625 2.21875,-0.5625q1.375,0 2.25,0.57812q0.89062,0.57813 1.26562,1.60938q1.46875,-2.1875 3.84375,-2.1875q1.84375,0 2.84375,1.03125q1,1.03125 1,3.15625l0,8.54687l-2.10937,0l0,-7.84375q0,-1.26562 -0.20313,-1.8125q-0.20312,-0.5625 -0.75,-0.90625q-0.53125,-0.34375 -1.25,-0.34375q-1.3125,0 -2.1875,0.875q-0.85937,0.875 -0.85937,2.79688l0,7.23437l-2.10938,0l0,-8.09375q0,-1.40625 -0.51562,-2.10937q-0.51563,-0.70313 -1.6875,-0.70313q-0.89063,0 -1.65625,0.46875q-0.75,0.46875 -1.09375,1.375q-0.34375,0.90625 -0.34375,2.60938l0,6.45312l-2.10938,0zm28.52344,-4.01562l2.17188,0.28125q-0.51563,1.90625 -1.90625,2.96875q-1.39063,1.04687 -3.5625,1.04687q-2.73438,0 -4.34375,-1.67187q-1.59375,-1.6875 -1.59375,-4.73438q0,-3.14062 1.60937,-4.875q1.625,-1.73437 4.20313,-1.73437q2.5,0 4.07812,1.70312q1.59375,1.70313 1.59375,4.78125q0,0.1875 -0.01562,0.5625l-9.28125,0q0.10937,2.04688 1.15625,3.14063q1.04687,1.09375 2.60937,1.09375q1.15625,0 1.96875,-0.60938q0.82813,-0.60937 1.3125,-1.95312zm-6.9375,-3.40625l6.95313,0q-0.14063,-1.5625 -0.79688,-2.35938q-1,-1.21875 -2.60937,-1.21875q-1.45313,0 -2.45313,0.98438q-0.98437,0.96875 -1.09375,2.59375z" fill="#000000"/>
   <path id="svg_56" fill-rule="evenodd" d="m111.80301,342.904l99.65355,-82.51968" fill-opacity="0" fill="#000000"/>
   <path id="svg_57" fill-rule="evenodd" d="m111.80301,342.904l99.65355,-82.51968" stroke-dasharray="1.0,3.0" stroke-linejoin="round" stroke="#595959"/>
   <path id="svg_58" fill-rule="evenodd" d="m210.81596,157.4212l0,104.94488" fill-opacity="0" fill="#000000"/>
   <path id="svg_59" fill-rule="evenodd" d="m210.81596,157.4212l0,104.94488" stroke-dasharray="1.0,3.0" stroke-linejoin="round" stroke="#595959"/>
   <path id="svg_60" fill-rule="evenodd" d="m210.81596,260.39386l138.61418,29.70078" fill-opacity="0" fill="#000000"/>
   <path id="svg_61" fill-rule="evenodd" d="m210.81596,260.39386l138.61418,29.70078" stroke-dasharray="1.0,3.0" stroke-linejoin="round" stroke="#595959"/>
  </g>
 </g>
</svg>